<?xml version="1.0" ?>
<svg id="OBJECT" viewBox="0 0 512 512" xmlns="http://www.w3.org/2000/svg">
<defs>
<style>.cls-1{fill:#fbd128;}.cls-2{fill:#000;}.cls-3{fill:#fff;}.cls-4{fill:#f3a326}</style>
</defs><title/>
<path class="cls-4" d="M407.5,131h-305l-32-45.73A10,10,0,0,0,62.29,81H17.5a10,10,0,0,0-10,10V431h420V151A20,20,0,0,0,407.5,131Z"/>
<path class="cls-4" d="M427.5,438.5H7.5A7.5,7.5,0,0,1,0,431V91A17.52,17.52,0,0,1,17.5,73.5H62.29A17.52,17.52,0,0,1,76.63,81L106.4,123.5H407.5A27.54,27.54,0,0,1,435,151V431A7.5,7.5,0,0,1,427.5,438.5ZM15,423.5H420V151a12.52,12.52,0,0,0-12.5-12.5h-305a7.47,7.47,0,0,1-6.14-3.2l-32-45.73a2.5,2.5,0,0,0-2.05-1.07H17.5A2.5,2.5,0,0,0,15,91Z"/>
<path class="cls-3" d="M146,81H366a20,20,0,0,1,20,20V371a0,0,0,0,1,0,0H126a0,0,0,0,1,0,0V101A20,20,0,0,1,146,81Z"/>
<path class="cls-2" d="M386,378.5H126a7.5,7.5,0,0,1-7.5-7.5V101A27.54,27.54,0,0,1,146,73.5H366A27.54,27.54,0,0,1,393.5,101V371A7.5,7.5,0,0,1,386,378.5Zm-252.5-15h245V101A12.52,12.52,0,0,0,366,88.5H146A12.52,12.52,0,0,0,133.5,101Z"/>
<path class="cls-1" d="M98,241H504.5l-75,190H7.5L79.44,253.49A20,20,0,0,1,98,241Z"/>
<path class="cls-1" d="M429.5,438.5H7.5A7.5,7.5,0,0,1,.55,428.18L72.49,250.67A27.39,27.39,0,0,1,98,233.5H504.5a7.5,7.5,0,0,1,7,10.25l-75,190A7.5,7.5,0,0,1,429.5,438.5Zm-410.87-15H424.4l69.08-175H98a12.44,12.44,0,0,0-11.58,7.8Z"/>
<path class="cls-2" d="M346,128.5H166a7.5,7.5,0,0,1,0-15H346a7.5,7.5,0,0,1,0,15Z"/>
<path class="cls-2" d="M346,168.5H166a7.5,7.5,0,0,1,0-15H346a7.5,7.5,0,0,1,0,15Z"/>
<path class="cls-2" d="M346,208.5H166a7.5,7.5,0,0,1,0-15H346a7.5,7.5,0,0,1,0,15Z"/>
</svg>
